<svg xmlns="http://www.w3.org/2000/svg" xmlns:xlink="http://www.w3.org/1999/xlink" width="200" height="200" viewBox="0 0 200 200">
  <defs>
    <clipPath id="clip-circle-img">
      <rect width="200" height="200"/>
    </clipPath>
  </defs>
  <g id="circle-img" clip-path="url(#clip-circle-img)">
    <line id="Line_20" data-name="Line 20" x1="71" transform="translate(29.5 100.5)" fill="none" stroke="#f24141" stroke-width="6"/>
    <line id="Line_21" data-name="Line 21" y1="142" transform="translate(100 29)" fill="none" stroke="#80d500" stroke-width="6"/>
    <g id="Ellipse_5" data-name="Ellipse 5" transform="translate(26 26)" fill="none" stroke="#5d06d2" stroke-width="6">
      <circle cx="74.5" cy="74.5" r="74.5" stroke="none"/>
      <circle cx="74.5" cy="74.5" r="71.5" fill="none"/>
    </g>
    <path id="Path_41" data-name="Path 41" d="M6.328-12.422h.125q2.078-6.2,6.391-6.2a6.168,6.168,0,0,1,2.406.484L14.172-14.2a5.556,5.556,0,0,0-1.8-.3,4.678,4.678,0,0,0-3.984,2.406A10.309,10.309,0,0,0,6.906-8.031V.8H2.75V-18.078H6.688Z" transform="translate(56 90.703)" fill="#5d06d2"/>
    <path id="Path_42" data-name="Path 42" d="M16.328-26.562h4.188V.891H16.609V-1.7A6.5,6.5,0,0,1,14.922-.016a8.322,8.322,0,0,1-4.766,1.391A7.923,7.923,0,0,1,3.422-1.937,10.9,10.9,0,0,1,1.484-8.562,11.586,11.586,0,0,1,2.844-14.3,8.08,8.08,0,0,1,6.406-17.75a8.091,8.091,0,0,1,3.641-.844,7.373,7.373,0,0,1,6.281,2.844Zm0,14.438q-2.281-3.234-5.2-3.234a4.625,4.625,0,0,0-4.172,2.422A8.392,8.392,0,0,0,5.859-8.5,8.4,8.4,0,0,0,6.7-4.562a4.625,4.625,0,0,0,4.391,2.672,5.111,5.111,0,0,0,3.688-1.562A7.12,7.12,0,0,0,16.328-5.8Z" transform="translate(108 112.594)" fill="#5d06d2"/>
  </g>
</svg>
