<svg xmlns="http://www.w3.org/2000/svg" width="150" height="150" viewBox="0 0 150 150">
  <g id="square-img" transform="translate(-329 -24)">
    <rect id="Rectangle_81" data-name="Rectangle 81" width="150" height="150" transform="translate(329 24)" fill="none"/>
    <g id="Rectangle_82" data-name="Rectangle 82" transform="translate(364 59)" fill="none" stroke="#80d500" stroke-width="4">
      <rect width="80" height="80" stroke="none"/>
      <rect x="2" y="2" width="76" height="76" fill="none"/>
    </g>
    <g id="Group_27" data-name="Group 27" transform="translate(0 -2)">
      <g id="Group_25" data-name="Group 25">
        <line id="Line_2" data-name="Line 2" y2="20" transform="translate(365.5 148.5)" fill="none" stroke="#7c3bd3" stroke-width="2"/>
        <g id="Group_24" data-name="Group 24" transform="translate(-1.928 0)">
          <line id="Line_6" data-name="Line 6" y2="20" transform="translate(388.964 158.5) rotate(90)" fill="none" stroke="#7c3bd3" stroke-width="2"/>
          <path id="Path_26" data-name="Path 26" d="M-511.965,531.036-513,532.071l1.035-1.035L-513,530l1.035,1.035,6.036-6.036-6.036,6.036,6.036,6.036Z" transform="translate(880.428 -372.536)" fill="none" stroke="#7c3bd3" stroke-width="2"/>
        </g>
      </g>
      <text id="a" transform="translate(404 165)" fill="#80d500" font-size="26" font-family="Asap-Regular, Asap"><tspan x="-7.085" y="0">a</tspan></text>
      <g id="Group_31" data-name="Group 31" transform="translate(420.964 149.5)">
        <line id="Line_2-2" data-name="Line 2" y2="20" transform="translate(21.536)" fill="none" stroke="#7c3bd3" stroke-width="2"/>
        <g id="Group_24-2" data-name="Group 24" transform="translate(0 3.964)">
          <line id="Line_6-2" data-name="Line 6" y1="20" transform="translate(20 6.036) rotate(90)" fill="none" stroke="#7c3bd3" stroke-width="2"/>
          <path id="Path_26-2" data-name="Path 26" d="M-506.964,531.036l1.035,1.035-1.035-1.035,1.035-1.035-1.035,1.035L-513,525l6.036,6.036L-513,537.071Z" transform="translate(527.465 -525)" fill="none" stroke="#7c3bd3" stroke-width="2"/>
        </g>
      </g>
      <g id="Group_32" data-name="Group 32" transform="translate(0 -114)">
        <line id="Line_2-3" data-name="Line 2" y2="20" transform="translate(365.5 148.5)" fill="none" stroke="#7c3bd3" stroke-width="2"/>
        <g id="Group_24-3" data-name="Group 24" transform="translate(-1.928 0)">
          <line id="Line_6-3" data-name="Line 6" y2="20" transform="translate(388.964 158.5) rotate(90)" fill="none" stroke="#7c3bd3" stroke-width="2"/>
          <path id="Path_26-3" data-name="Path 26" d="M-511.965,531.036-513,532.071l1.035-1.035L-513,530l1.035,1.035,6.036-6.036-6.036,6.036,6.036,6.036Z" transform="translate(880.428 -372.536)" fill="none" stroke="#7c3bd3" stroke-width="2"/>
        </g>
      </g>
      <path id="Path_27" data-name="Path 27" d="M-.117-13.754c-2.6,0-4.888.988-4.888,1.664,0,.286.546,1.3.91,1.3A9.459,9.459,0,0,1-.039-11.882c2.158,0,2.86,1.014,2.86,2.184v1.222c-3.978.052-8.632.338-8.632,4.732,0,2.678,1.924,3.9,4.446,3.9A5.727,5.727,0,0,0,3-1.794c.156.728.286,1.82.91,1.82.338,0,1.4-.1,1.4-.6a15.149,15.149,0,0,1-.312-3.276V-9.672C5.005-12.246,3.107-13.754-.117-13.754ZM2.821-6.6v3.068A5.714,5.714,0,0,1-1.261-1.742a1.945,1.945,0,0,1-2.21-2.132C-3.471-6.578.117-6.578,2.821-6.6Z" transform="translate(404 51)" fill="#80d500"/>
      <g id="Group_33" data-name="Group 33" transform="translate(420.964 35.5)">
        <line id="Line_2-4" data-name="Line 2" y2="20" transform="translate(21.536)" fill="none" stroke="#7c3bd3" stroke-width="2"/>
        <g id="Group_24-4" data-name="Group 24" transform="translate(0 3.964)">
          <line id="Line_6-4" data-name="Line 6" y1="20" transform="translate(20 6.036) rotate(90)" fill="none" stroke="#7c3bd3" stroke-width="2"/>
          <path id="Path_26-4" data-name="Path 26" d="M-506.964,531.036l1.035,1.035-1.035-1.035,1.035-1.035-1.035,1.035L-513,525l6.036,6.036L-513,537.071Z" transform="translate(527.465 -525)" fill="none" stroke="#7c3bd3" stroke-width="2"/>
        </g>
      </g>
    </g>
    <g id="Group_34" data-name="Group 34" transform="translate(505.5 -305) rotate(90)">
      <g id="Group_25-2" data-name="Group 25">
        <line id="Line_2-5" data-name="Line 2" y2="20" transform="translate(365.5 148.5)" fill="none" stroke="#7c3bd3" stroke-width="2"/>
        <g id="Group_24-5" data-name="Group 24" transform="translate(-1.928 0)">
          <line id="Line_6-5" data-name="Line 6" y2="20" transform="translate(388.964 158.5) rotate(90)" fill="none" stroke="#7c3bd3" stroke-width="2"/>
          <path id="Path_26-5" data-name="Path 26" d="M-511.965,531.036-513,532.071l1.035-1.035L-513,530l1.035,1.035,6.036-6.036-6.036,6.036,6.036,6.036Z" transform="translate(880.428 -372.536)" fill="none" stroke="#7c3bd3" stroke-width="2"/>
        </g>
      </g>
      <text id="a-2" data-name="a" transform="translate(412.5 158.5) rotate(-90)" fill="#80d500" font-size="26" font-family="Asap-Regular, Asap"><tspan x="-7.085" y="0">a</tspan></text>
      <g id="Group_31-2" data-name="Group 31" transform="translate(420.964 149.5)">
        <line id="Line_2-6" data-name="Line 2" y2="20" transform="translate(21.536)" fill="none" stroke="#7c3bd3" stroke-width="2"/>
        <g id="Group_24-6" data-name="Group 24" transform="translate(0 3.964)">
          <line id="Line_6-6" data-name="Line 6" y1="20" transform="translate(20 6.036) rotate(90)" fill="none" stroke="#7c3bd3" stroke-width="2"/>
          <path id="Path_26-6" data-name="Path 26" d="M-506.964,531.036l1.035,1.035-1.035-1.035,1.035-1.035-1.035,1.035L-513,525l6.036,6.036L-513,537.071Z" transform="translate(527.465 -525)" fill="none" stroke="#7c3bd3" stroke-width="2"/>
        </g>
      </g>
      <g id="Group_32-2" data-name="Group 32" transform="translate(0 -114)">
        <line id="Line_2-7" data-name="Line 2" y2="20" transform="translate(365.5 148.5)" fill="none" stroke="#7c3bd3" stroke-width="2"/>
        <g id="Group_24-7" data-name="Group 24" transform="translate(-1.928 0)">
          <line id="Line_6-7" data-name="Line 6" y2="20" transform="translate(388.964 158.5) rotate(90)" fill="none" stroke="#7c3bd3" stroke-width="2"/>
          <path id="Path_26-7" data-name="Path 26" d="M-511.965,531.036-513,532.071l1.035-1.035L-513,530l1.035,1.035,6.036-6.036-6.036,6.036,6.036,6.036Z" transform="translate(880.428 -372.536)" fill="none" stroke="#7c3bd3" stroke-width="2"/>
        </g>
      </g>
      <text id="a-3" data-name="a" transform="translate(412.5 44.5) rotate(-90)" fill="#80d500" font-size="26" font-family="Asap-Regular, Asap"><tspan x="-7.085" y="0">a</tspan></text>
      <g id="Group_33-2" data-name="Group 33" transform="translate(420.964 35.5)">
        <line id="Line_2-8" data-name="Line 2" y2="20" transform="translate(21.536)" fill="none" stroke="#7c3bd3" stroke-width="2"/>
        <g id="Group_24-8" data-name="Group 24" transform="translate(0 3.964)">
          <line id="Line_6-8" data-name="Line 6" y1="20" transform="translate(20 6.036) rotate(90)" fill="none" stroke="#7c3bd3" stroke-width="2"/>
          <path id="Path_26-8" data-name="Path 26" d="M-506.964,531.036l1.035,1.035-1.035-1.035,1.035-1.035-1.035,1.035L-513,525l6.036,6.036L-513,537.071Z" transform="translate(527.465 -525)" fill="none" stroke="#7c3bd3" stroke-width="2"/>
        </g>
      </g>
    </g>
  </g>
</svg>
