<svg xmlns="http://www.w3.org/2000/svg" width="150" height="150" viewBox="0 0 150 150">
  <g id="triangle-img" transform="translate(-329 -24)">
    <g id="Group_38" data-name="Group 38">
      <line id="Line_9" data-name="Line 9" y2="15" transform="translate(404 63.5)" fill="none" stroke="#e25b39" stroke-width="4"/>
      <line id="Line_10" data-name="Line 10" y2="10" transform="translate(404 83.5)" fill="none" stroke="#e25b39" stroke-width="4"/>
      <line id="Line_13" data-name="Line 13" y2="10" transform="translate(404 97.5)" fill="none" stroke="#e25b39" stroke-width="4"/>
      <line id="Line_14" data-name="Line 14" y2="10" transform="translate(404 126.5)" fill="none" stroke="#e25b39" stroke-width="4"/>
      <line id="Line_15" data-name="Line 15" y2="10" transform="translate(404 112.5)" fill="none" stroke="#e25b39" stroke-width="4"/>
    </g>
    <rect id="Rectangle_81" data-name="Rectangle 81" width="150" height="150" transform="translate(329 24)" fill="none"/>
    <g id="Group_27" data-name="Group 27" transform="translate(0 -2)">
      <g id="Group_25" data-name="Group 25">
        <g id="Group_24" data-name="Group 24" transform="translate(-16.928 -7)">
          <line id="Line_2" data-name="Line 2" y2="20" transform="translate(382.428 155)" fill="none" stroke="#7c3bd3" stroke-width="1"/>
          <path id="Path_28" data-name="Path 28" d="M0-5.348V20" transform="translate(402.428 164.964) rotate(90)" fill="none" stroke="#7c3bd3" stroke-width="1"/>
          <line id="Line_7" data-name="Line 7" y2="10" transform="translate(382.428 164.964) rotate(-45)" fill="none" stroke="#7c3bd3" stroke-width="1"/>
          <line id="Line_8" data-name="Line 8" y2="10" transform="translate(389.5 157.964) rotate(45)" fill="none" stroke="#7c3bd3" stroke-width="1"/>
        </g>
        <g id="Group_35" data-name="Group 35" transform="translate(418.5 148)">
          <line id="Line_2-2" data-name="Line 2" y2="20" transform="translate(25.348)" fill="none" stroke="#7c3bd3" stroke-width="1"/>
          <path id="Path_28-2" data-name="Path 28" d="M0,25.348V0" transform="translate(25.348 9.964) rotate(90)" fill="none" stroke="#7c3bd3" stroke-width="1"/>
          <line id="Line_7-2" data-name="Line 7" y1="10" transform="translate(18.277 17.036) rotate(-135)" fill="none" stroke="#7c3bd3" stroke-width="1"/>
          <line id="Line_8-2" data-name="Line 8" y1="10" transform="translate(25.348 10.036) rotate(135)" fill="none" stroke="#7c3bd3" stroke-width="1"/>
        </g>
      </g>
      <text id="b" transform="translate(405 166)" fill="#80d500" font-size="26" font-family="Asap-Regular, Asap"><tspan x="-7.397" y="0">b</tspan></text>
      <text id="a" transform="translate(442 100)" fill="#80d500" font-size="26" font-family="Asap-Regular, Asap"><tspan x="-7.085" y="0">a</tspan></text>
      <text id="h" transform="translate(419 136)" fill="#e25b39" font-size="26" font-family="Asap-Regular, Asap"><tspan x="-7.345" y="0">h</tspan></text>
    </g>
    <g id="Polygon_2" data-name="Polygon 2" transform="translate(364 59)" fill="none">
      <path d="M40,0,80,80H0Z" stroke="none"/>
      <path d="M 40 8.944282531738281 L 6.472145080566406 76 L 73.52785491943359 76 L 40 8.944282531738281 M 40 0 L 80 80 L 0 80 L 40 0 Z" stroke="none" fill="#80d500"/>
    </g>
    <g id="Group_36" data-name="Group 36" transform="matrix(0.454, -0.891, 0.891, 0.454, 39.059, 384.577)">
      <g id="Group_25-2" data-name="Group 25" transform="translate(365.5 148)">
        <g id="Group_24-2" data-name="Group 24">
          <line id="Line_2-3" data-name="Line 2" y2="20" fill="none" stroke="#7c3bd3" stroke-width="1"/>
          <path id="Path_28-3" data-name="Path 28" d="M0,0V25.348" transform="translate(25.348 9.964) rotate(90)" fill="none" stroke="#7c3bd3" stroke-width="1"/>
          <line id="Line_7-3" data-name="Line 7" y2="10" transform="translate(0 9.964) rotate(-45)" fill="none" stroke="#7c3bd3" stroke-width="1"/>
          <line id="Line_8-3" data-name="Line 8" y2="10" transform="translate(7.071 2.964) rotate(45)" fill="none" stroke="#7c3bd3" stroke-width="1"/>
        </g>
        <g id="Group_35-2" data-name="Group 35" transform="translate(62.711 0)">
          <line id="Line_2-4" data-name="Line 2" y2="20" transform="translate(25.348)" fill="none" stroke="#7c3bd3" stroke-width="1"/>
          <path id="Path_28-4" data-name="Path 28" d="M0,25.348V0" transform="translate(25.348 9.964) rotate(90)" fill="none" stroke="#7c3bd3" stroke-width="1"/>
          <line id="Line_7-4" data-name="Line 7" y1="10" transform="translate(18.277 17.036) rotate(-135)" fill="none" stroke="#7c3bd3" stroke-width="1"/>
          <line id="Line_8-4" data-name="Line 8" y1="10" transform="translate(25.348 10.036) rotate(135)" fill="none" stroke="#7c3bd3" stroke-width="1"/>
        </g>
      </g>
      <text id="c" transform="matrix(0.454, 0.891, -0.891, 0.454, 403.209, 159.359)" fill="#80d500" font-size="26" font-family="Asap-Regular, Asap"><tspan x="-6.305" y="0">c</tspan></text>
    </g>
    <g id="Group_37" data-name="Group 37" transform="matrix(-0.454, -0.891, 0.891, -0.454, 452.297, 135.184)">
      <g id="Group_25-3" data-name="Group 25" transform="translate(0 0)">
        <g id="Group_24-3" data-name="Group 24" transform="translate(0 0)">
          <line id="Line_2-5" data-name="Line 2" y1="20" transform="translate(0 0)" fill="none" stroke="#7c3bd3" stroke-width="1"/>
          <path id="Path_28-5" data-name="Path 28" d="M0,25.348V0" transform="translate(0 10.036) rotate(-90)" fill="none" stroke="#7c3bd3" stroke-width="1"/>
          <line id="Line_7-5" data-name="Line 7" y1="10" transform="translate(7.071 2.964) rotate(45)" fill="none" stroke="#7c3bd3" stroke-width="1"/>
          <line id="Line_8-5" data-name="Line 8" y1="10" transform="translate(0 9.964) rotate(-45)" fill="none" stroke="#7c3bd3" stroke-width="1"/>
        </g>
        <g id="Group_35-3" data-name="Group 35" transform="translate(62.711 0)">
          <line id="Line_2-6" data-name="Line 2" y1="20" transform="translate(25.348 0)" fill="none" stroke="#7c3bd3" stroke-width="1"/>
          <path id="Path_28-6" data-name="Path 28" d="M0,0V25.348" transform="translate(0 10.036) rotate(-90)" fill="none" stroke="#7c3bd3" stroke-width="1"/>
          <line id="Line_7-6" data-name="Line 7" y2="10" transform="translate(25.348 10.036) rotate(135)" fill="none" stroke="#7c3bd3" stroke-width="1"/>
          <line id="Line_8-6" data-name="Line 8" y2="10" transform="translate(18.277 17.036) rotate(-135)" fill="none" stroke="#7c3bd3" stroke-width="1"/>
        </g>
      </g>
    </g>
  </g>
</svg>
