<svg xmlns="http://www.w3.org/2000/svg" xmlns:xlink="http://www.w3.org/1999/xlink" width="200" height="200" viewBox="0 0 200 200">
  <defs>
    <clipPath id="clip-triangle-img">
      <rect width="200" height="200"/>
    </clipPath>
  </defs>
  <g id="triangle-img" clip-path="url(#clip-triangle-img)">
    <g id="Group_62" data-name="Group 62" transform="translate(-2 -0.555)">
      <g id="Group_55" data-name="Group 55" transform="translate(81.995 48.58) rotate(120)">
        <line id="Line_16" data-name="Line 16" y1="12.618" x2="8.412" transform="translate(2.524)" fill="none" stroke="#80d500" stroke-width="3"/>
        <line id="Line_17" data-name="Line 17" x1="8.412" y1="12.618" transform="translate(2.524 10.936)" fill="none" stroke="#80d500" stroke-width="3"/>
        <line id="Line_18" data-name="Line 18" y1="21.03" transform="translate(0 1.262)" fill="none" stroke="#80d500" stroke-width="3"/>
        <line id="Line_19" data-name="Line 19" x2="33.228" transform="translate(3.365 12.198)" fill="none" stroke="#80d500" stroke-width="3"/>
      </g>
      <path id="Path_37" data-name="Path 37" d="M14.047-11.359v-.3q0-3.859-3.672-3.859a10.006,10.006,0,0,0-6.187,2.078L2.594-16.328a14.184,14.184,0,0,1,7.922-2.359q4.156,0,6.2,2.391a7.209,7.209,0,0,1,1.422,4.844v6.594A11.668,11.668,0,0,0,19.266.8H15.453a8.922,8.922,0,0,1-.891-2.969h-.109A6.673,6.673,0,0,1,11.891.469a7.24,7.24,0,0,1-3.8.875A6.664,6.664,0,0,1,3.469-.3,5.631,5.631,0,0,1,1.563-4.672q0-6.688,10.813-6.687Zm0,2.938H12.8a12.449,12.449,0,0,0-5.484.938A2.83,2.83,0,0,0,5.75-4.734a2.541,2.541,0,0,0,.938,2.078A3.516,3.516,0,0,0,9-1.922a4.947,4.947,0,0,0,3.391-1.344,4.823,4.823,0,0,0,1.656-3.781Z" transform="translate(34.586 97.776)" fill="#5d06d2"/>
      <g id="Group_56" data-name="Group 56" transform="translate(8.005 129.628) rotate(-60)">
        <line id="Line_16-2" data-name="Line 16" x2="8.412" y2="12.618" transform="translate(2.524 10.936)" fill="none" stroke="#80d500" stroke-width="3"/>
        <line id="Line_17-2" data-name="Line 17" x1="8.412" y2="12.618" transform="translate(2.524)" fill="none" stroke="#80d500" stroke-width="3"/>
        <line id="Line_18-2" data-name="Line 18" y2="21.03" transform="translate(0 1.262)" fill="none" stroke="#80d500" stroke-width="3"/>
        <line id="Line_19-2" data-name="Line 19" x2="33.228" transform="translate(3.365 11.356)" fill="none" stroke="#80d500" stroke-width="3"/>
      </g>
    </g>
    <g id="Group_59" data-name="Group 59" transform="translate(153.592 194.434) rotate(180)">
      <line id="Line_16-3" data-name="Line 16" y1="12.618" x2="8.412" transform="translate(2.524)" fill="none" stroke="#80d500" stroke-width="3"/>
      <line id="Line_17-3" data-name="Line 17" x1="8.412" y1="12.618" transform="translate(2.524 10.936)" fill="none" stroke="#80d500" stroke-width="3"/>
      <line id="Line_18-3" data-name="Line 18" y1="21.03" transform="translate(0 1.262)" fill="none" stroke="#80d500" stroke-width="3"/>
      <line id="Line_19-3" data-name="Line 19" x2="33.228" transform="translate(3.365 12.198)" fill="none" stroke="#80d500" stroke-width="3"/>
    </g>
    <g id="Group_60" data-name="Group 60" transform="translate(46.407 170.881)">
      <line id="Line_16-4" data-name="Line 16" x2="8.412" y2="12.618" transform="translate(2.524 10.936)" fill="none" stroke="#80d500" stroke-width="3"/>
      <line id="Line_17-4" data-name="Line 17" x1="8.412" y2="12.618" transform="translate(2.524)" fill="none" stroke="#80d500" stroke-width="3"/>
      <line id="Line_18-4" data-name="Line 18" y2="21.03" transform="translate(0 1.262)" fill="none" stroke="#80d500" stroke-width="3"/>
      <line id="Line_19-4" data-name="Line 19" x2="33.228" transform="translate(3.365 11.356)" fill="none" stroke="#80d500" stroke-width="3"/>
    </g>
    <g id="Polygon_3" data-name="Polygon 3" transform="translate(45 45)" fill="none">
      <path d="M55,0l55,110H0Z" stroke="none"/>
      <path d="M 54.99989318847656 13.41639709472656 L 9.70819091796875 104 L 100.2917938232422 104 L 54.99989318847656 13.41639709472656 M 54.99988174438477 -7.62939453125e-06 L 110 110 L 0 110 L 54.99988174438477 -7.62939453125e-06 Z" stroke="none" fill="#5d06d2"/>
    </g>
    <path id="Path_39" data-name="Path 39" d="M2.844-26.562H7.031V-15.75a7.314,7.314,0,0,1,6.25-2.844,7.79,7.79,0,0,1,6.7,3.453,11.055,11.055,0,0,1,1.891,6.578,10.677,10.677,0,0,1-2.187,6.938,7.95,7.95,0,0,1-6.5,3A8.285,8.285,0,0,1,6.672-1.7L6.234.891H2.844ZM7.031-5.609a6.32,6.32,0,0,0,1.813,2.5,5.379,5.379,0,0,0,3.438,1.219,4.61,4.61,0,0,0,4.078-2.172A7.929,7.929,0,0,0,17.5-8.5a8.548,8.548,0,0,0-.984-4.25,4.636,4.636,0,0,0-4.281-2.609q-2.969,0-5.2,3.234Z" transform="translate(89 195.251)" fill="#5d06d2"/>
    <g id="Group_61" data-name="Group 61" transform="translate(-50.908 94.709) rotate(-30)">
      <g id="Group_53" data-name="Group 53" transform="translate(195.777 45.527) rotate(90)">
        <line id="Line_16-5" data-name="Line 16" y1="12.618" x2="8.412" transform="translate(2.524)" fill="none" stroke="#80d500" stroke-width="3"/>
        <line id="Line_17-5" data-name="Line 17" x1="8.412" y1="12.618" transform="translate(2.524 10.936)" fill="none" stroke="#80d500" stroke-width="3"/>
        <line id="Line_18-5" data-name="Line 18" y1="21.03" transform="translate(0 1.262)" fill="none" stroke="#80d500" stroke-width="3"/>
        <line id="Line_19-5" data-name="Line 19" x2="33.228" transform="translate(3.365 12.198)" fill="none" stroke="#80d500" stroke-width="3"/>
      </g>
      <g id="Group_54" data-name="Group 54" transform="translate(172.223 152.712) rotate(-90)">
        <line id="Line_16-6" data-name="Line 16" x2="8.412" y2="12.618" transform="translate(2.524 10.936)" fill="none" stroke="#80d500" stroke-width="3"/>
        <line id="Line_17-6" data-name="Line 17" x1="8.412" y2="12.618" transform="translate(2.524)" fill="none" stroke="#80d500" stroke-width="3"/>
        <line id="Line_18-6" data-name="Line 18" y2="21.03" transform="translate(0 1.262)" fill="none" stroke="#80d500" stroke-width="3"/>
        <line id="Line_19-6" data-name="Line 19" x2="33.228" transform="translate(3.365 11.356)" fill="none" stroke="#80d500" stroke-width="3"/>
      </g>
      <path id="Path_40" data-name="Path 40" d="M19.453-2.109a10.687,10.687,0,0,1-8.422,3.547q-5.25,0-7.875-3.609A10.508,10.508,0,0,1,1.313-8.5a10.622,10.622,0,0,1,2.2-6.781,8.822,8.822,0,0,1,7.266-3.406,11.435,11.435,0,0,1,7.875,2.844l-2.047,2.891a7.661,7.661,0,0,0-5.453-2.406,4.912,4.912,0,0,0-4.25,2.172A7.944,7.944,0,0,0,5.625-8.547,7.483,7.483,0,0,0,6.953-3.906a5.155,5.155,0,0,0,4.328,1.953,6.828,6.828,0,0,0,5.609-2.812Z" transform="translate(170.696 102.278) rotate(30)" fill="#5d06d2"/>
    </g>
  </g>
</svg>
