<svg xmlns="http://www.w3.org/2000/svg" width="103.659" height="30" viewBox="0 0 103.659 30">
  <g id="logo-icon" transform="translate(-16 -13)">
    <g id="letter-logo" transform="translate(55 13.47)">
      <rect id="container" width="64.659" height="29.06" transform="translate(0)" fill="none"/>
      <path id="letter" d="M6.755-162.395a3.56,3.56,0,0,1-2.254-.588,1.7,1.7,0,0,1-.728-1.333,5.555,5.555,0,0,1,.137-1.132,4.375,4.375,0,0,1,.433-1.19,2.974,2.974,0,0,0,.933.674,2.711,2.711,0,0,0,1.184.272,1.391,1.391,0,0,0,1.3-.6,3.081,3.081,0,0,0,.364-1.605,4.479,4.479,0,0,0-.216-1.4,8.335,8.335,0,0,0-.808-1.634l-2.071-3.5A9.278,9.278,0,0,1,4-176.727a7.7,7.7,0,0,1-.25-1.921,4.755,4.755,0,0,1,1.024-3.167A3.732,3.732,0,0,1,7.8-183.033a4.842,4.842,0,0,1,2.413.43,1.327,1.327,0,0,1,.683,1.175,3.167,3.167,0,0,1-.137.874,3.182,3.182,0,0,1-.455.932,2.312,2.312,0,0,0-.751-.373,3.671,3.671,0,0,0-1.229-.2,2.158,2.158,0,0,0-1.32.358,1.29,1.29,0,0,0-.478,1.1,3.7,3.7,0,0,0,.193,1.218,8.6,8.6,0,0,0,.626,1.333l2.185,3.526a8.8,8.8,0,0,1,1.093,2.379,9.174,9.174,0,0,1,.273,2.293,10.12,10.12,0,0,1-.353,2.709A4.259,4.259,0,0,1,9.3-163.2,3.675,3.675,0,0,1,6.755-162.395Zm8.468,0a3.339,3.339,0,0,1-1.423-.3,2.655,2.655,0,0,1-1.115-1.046,6.214,6.214,0,0,1-.728-2.064,17.714,17.714,0,0,1-.262-3.354,22.442,22.442,0,0,1,.319-4.214,7,7,0,0,1,.876-2.451,3.005,3.005,0,0,1,1.286-1.161A3.8,3.8,0,0,1,15.7-177.3a2.481,2.481,0,0,1,2.14,1.089,6.346,6.346,0,0,1,.774,3.583q0,1.032-.068,2.136a12.84,12.84,0,0,1-.25,1.935,10.035,10.035,0,0,1-1.525.258q-.865.086-1.684.129t-1.354.043H13.2l.046-2.551.33.014q.33.014.808.014a7.464,7.464,0,0,0,.933-.057,1.93,1.93,0,0,0,.706-.2,3.58,3.58,0,0,0,.091-.7q.023-.444.023-.788a5.36,5.36,0,0,0-.171-1.749.61.61,0,0,0-.6-.373.592.592,0,0,0-.5.315,2.662,2.662,0,0,0-.319.96,13.021,13.021,0,0,0-.159,1.605q-.046.96-.046,2.279,0,1,.057,1.734a5.317,5.317,0,0,0,.2,1.19,1.339,1.339,0,0,0,.455.688,1.278,1.278,0,0,0,.785.229,3.605,3.605,0,0,0,1.218-.215,6.067,6.067,0,0,0,1.2-.588,5.833,5.833,0,0,1,.159,1.046q.046.616.046,1.1a1.266,1.266,0,0,1-.444.975,2.843,2.843,0,0,1-1.172.6A6.079,6.079,0,0,1,15.223-162.395Zm7.944,0a3.653,3.653,0,0,1-2.106-.516,2.7,2.7,0,0,1-1.036-1.476,7.9,7.9,0,0,1-.3-2.308v-9.746a.606.606,0,0,1,.1-.4q.1-.115.66-.143t1.878-.029v10.52a4.006,4.006,0,0,0,.057.731.85.85,0,0,0,.216.459.653.653,0,0,0,.478.158,1.28,1.28,0,0,0,.455-.086,1.056,1.056,0,0,0,.41-.287V-176.44a.606.606,0,0,1,.1-.4,1.079,1.079,0,0,1,.626-.143q.524-.029,1.821-.029v13.53a6.2,6.2,0,0,1-1.445.745A5.337,5.337,0,0,1,23.167-162.395Zm8.195,0a4.456,4.456,0,0,1-1.389-.215,2.464,2.464,0,0,1-1.184-.9,5.259,5.259,0,0,1-.819-2.05,17.753,17.753,0,0,1-.3-3.626,21.861,21.861,0,0,1,.41-4.73A5.97,5.97,0,0,1,29.2-176.5a2.087,2.087,0,0,1,1.593-.8,2.047,2.047,0,0,1,.8.143,1.493,1.493,0,0,1,.546.373v-5.561a1.891,1.891,0,0,1,.193-1,.975.975,0,0,1,.751-.344q.558-.057,1.6-.057v20.5a8.264,8.264,0,0,1-1.389.588A6.153,6.153,0,0,1,31.362-162.395Zm.023-2.838a1.111,1.111,0,0,0,.41-.072,1.127,1.127,0,0,0,.341-.215v-8.886a.462.462,0,0,0-.228-.115,1.227,1.227,0,0,0-.25-.029.706.706,0,0,0-.353.115,1.174,1.174,0,0,0-.376.588,6.173,6.173,0,0,0-.285,1.476q-.1,1-.1,2.781,0,1.29.046,2.136a9.211,9.211,0,0,0,.148,1.333,1.717,1.717,0,0,0,.262.688A.479.479,0,0,0,31.385-165.232Zm8.035,2.838a4.284,4.284,0,0,1-1.593-.272,2.28,2.28,0,0,1-1.127-1.061,6.712,6.712,0,0,1-.66-2.265,27.906,27.906,0,0,1-.216-3.884,12.124,12.124,0,0,1,.99-5.661A3.068,3.068,0,0,1,39.6-177.3a3.166,3.166,0,0,1,2.015.616,3.846,3.846,0,0,1,1.161,2.207,20.622,20.622,0,0,1,.376,4.486q0,4.156-.945,5.876A3.013,3.013,0,0,1,39.42-162.395Zm.068-2.666a.531.531,0,0,0,.421-.287,3.585,3.585,0,0,0,.319-1.319,29.833,29.833,0,0,0,.125-3.239q0-2.064-.068-3.082a3.61,3.61,0,0,0-.25-1.333.574.574,0,0,0-.524-.315.566.566,0,0,0-.455.33,3.7,3.7,0,0,0-.319,1.347,29.943,29.943,0,0,0-.114,3.053q0,1.663.057,2.652a9.951,9.951,0,0,0,.159,1.448,1.118,1.118,0,0,0,.273.6A.571.571,0,0,0,39.488-165.06Zm7.216,2.666a4.5,4.5,0,0,1-1.878-.358,1.331,1.331,0,0,1-.785-1.333,4.412,4.412,0,0,1,.091-.817,4.628,4.628,0,0,1,.319-.989,3.856,3.856,0,0,0,.99.473,3.36,3.36,0,0,0,.99.158,1.1,1.1,0,0,0,.876-.33,1.291,1.291,0,0,0,.285-.874,3.723,3.723,0,0,0-.08-.717,2.424,2.424,0,0,0-.421-.889l-1.98-2.637a5.462,5.462,0,0,1-.842-1.605,4.877,4.877,0,0,1-.25-1.433,4.443,4.443,0,0,1,.353-1.806,2.718,2.718,0,0,1,1.172-1.276,4.467,4.467,0,0,1,2.231-.473,4.337,4.337,0,0,1,1.867.3,1.5,1.5,0,0,1,.763.717,2.077,2.077,0,0,1,.171.788,2.649,2.649,0,0,1-.5,1.548,3.27,3.27,0,0,0-.945-.459,3.586,3.586,0,0,0-1.013-.143,1.2,1.2,0,0,0-.808.229.8.8,0,0,0-.262.631,1.646,1.646,0,0,0,.114.545,3.871,3.871,0,0,0,.546.889l1.685,2.15a6.3,6.3,0,0,1,.911,1.734,6.51,6.51,0,0,1,.228,1.849,4.243,4.243,0,0,1-1.036,3.024A3.641,3.641,0,0,1,46.7-162.395Zm7.831,0a5.065,5.065,0,0,1-1.218-.143,2.18,2.18,0,0,1-1.036-.6,3.143,3.143,0,0,1-.717-1.347,8.7,8.7,0,0,1-.262-2.379,10.887,10.887,0,0,1,.216-2.394,4.008,4.008,0,0,1,.592-1.448,1.962,1.962,0,0,1,.842-.7,2.586,2.586,0,0,1,.967-.186,4.086,4.086,0,0,1,.706.086,1.557,1.557,0,0,1,.751.344v-1.978a1.658,1.658,0,0,0-.091-.6.659.659,0,0,0-.3-.344,1.174,1.174,0,0,0-.569-.115,6.4,6.4,0,0,0-1.4.172,6.926,6.926,0,0,0-1.332.43,3.9,3.9,0,0,1-.273-1,6.769,6.769,0,0,1-.068-.86,2.194,2.194,0,0,1,.08-.559.888.888,0,0,1,.239-.444,3.662,3.662,0,0,1,1.138-.53,7.128,7.128,0,0,1,2.254-.3,2.758,2.758,0,0,1,2.219.774,4.321,4.321,0,0,1,.649,2.723v4.7q0,1.72-.023,3.225t-.091,2.566a4.3,4.3,0,0,1-1.411.674A6.7,6.7,0,0,1,54.535-162.395Zm.182-2.637a.935.935,0,0,0,.341-.072.55.55,0,0,0,.273-.215q.023-.315.034-.96t.011-1.39v-1.347a.517.517,0,0,0-.285-.186,1.271,1.271,0,0,0-.307-.043.575.575,0,0,0-.33.1.754.754,0,0,0-.25.358,3,3,0,0,0-.159.7,9.209,9.209,0,0,0-.057,1.132q0,.516.034.874a2.83,2.83,0,0,0,.114.6.636.636,0,0,0,.228.344A.614.614,0,0,0,54.717-165.032Zm4.575,2.351v-13.673a4.918,4.918,0,0,1,.979-.444,10.4,10.4,0,0,1,1.3-.358,6.135,6.135,0,0,1,1.252-.143,4.534,4.534,0,0,1,1.878.33,2.084,2.084,0,0,1,1.059,1.132A5.872,5.872,0,0,1,66.1-173.6v10.348a.528.528,0,0,1-.125.4,1.283,1.283,0,0,1-.672.143q-.546.029-1.844.029V-172.6a5.706,5.706,0,0,0-.137-1.534.58.58,0,0,0-.615-.416,1.281,1.281,0,0,0-.455.086,1.22,1.22,0,0,0-.41.258v10.95a.562.562,0,0,1-.114.4,1.178,1.178,0,0,1-.649.143Q60.545-162.681,59.293-162.681Z" transform="translate(-2.595 187.602)" fill="#fff"/>
    </g>
    <g id="logo-icon-2" data-name="logo-icon" transform="translate(16 13)">
      <path id="base" d="M9.375,30,0,20.625V9.375L9.375,0h11.25L30,9.375v11.25L20.625,30Z" fill="#9346f9"/>
      <path id="s" d="M556.607-665.872h0L551-671.422l2.744-2.716,5.607,5.55,2.743-2.716,2.743,2.716-2.743,2.716h0l-2.744,2.715Zm-5.412-18.016,2.744-2.715,14.482,14.336-2.743,2.716Zm9.07-3.68-2.743,2.716-2.744-2.715,2.744-2.716h0L560.265-693l8.35,8.266-1.185,1.173-1.558,1.543Z" transform="translate(-544.807 693.078)" fill="#fff"/>
    </g>
  </g>
</svg>
